<mxfile host="app.diagrams.net" agent="Mozilla/5.0 (Windows NT 10.0; Win64; x64) AppleWebKit/537.36 (KHTML, like Gecko) Chrome/134.0.0.0 Safari/537.36" version="26.1.1">
  <diagram name="Page-1" id="RSlp7f4B4XHE2gETGnQw">
    <mxGraphModel grid="1" page="1" gridSize="10" guides="1" tooltips="1" connect="1" arrows="1" fold="1" pageScale="1" pageWidth="827" pageHeight="1169" math="0" shadow="0">
      <root>
        <mxCell id="0" />
        <mxCell id="1" parent="0" />
        <mxCell id="LvmRNkCIbL3GWUBd5G5_-12" style="edgeStyle=orthogonalEdgeStyle;rounded=0;orthogonalLoop=1;jettySize=auto;html=1;endArrow=none;startFill=0;" edge="1" parent="1" source="LvmRNkCIbL3GWUBd5G5_-1" target="LvmRNkCIbL3GWUBd5G5_-11">
          <mxGeometry relative="1" as="geometry" />
        </mxCell>
        <mxCell id="LvmRNkCIbL3GWUBd5G5_-14" value="1,n" style="edgeLabel;html=1;align=center;verticalAlign=middle;resizable=0;points=[];" connectable="0" vertex="1" parent="LvmRNkCIbL3GWUBd5G5_-12">
          <mxGeometry x="-0.5702" relative="1" as="geometry">
            <mxPoint as="offset" />
          </mxGeometry>
        </mxCell>
        <mxCell id="LvmRNkCIbL3GWUBd5G5_-28" style="edgeStyle=orthogonalEdgeStyle;rounded=0;orthogonalLoop=1;jettySize=auto;html=1;endArrow=none;startFill=0;" edge="1" parent="1" source="LvmRNkCIbL3GWUBd5G5_-1" target="LvmRNkCIbL3GWUBd5G5_-27">
          <mxGeometry relative="1" as="geometry" />
        </mxCell>
        <mxCell id="LvmRNkCIbL3GWUBd5G5_-30" value="1,n" style="edgeLabel;html=1;align=center;verticalAlign=middle;resizable=0;points=[];" connectable="0" vertex="1" parent="LvmRNkCIbL3GWUBd5G5_-28">
          <mxGeometry x="-0.7879" y="-1" relative="1" as="geometry">
            <mxPoint as="offset" />
          </mxGeometry>
        </mxCell>
        <mxCell id="LvmRNkCIbL3GWUBd5G5_-1" value="chef" style="swimlane;whiteSpace=wrap;html=1;" vertex="1" parent="1">
          <mxGeometry x="294" y="405" width="200" height="200" as="geometry" />
        </mxCell>
        <mxCell id="LvmRNkCIbL3GWUBd5G5_-2" value="&lt;u&gt;&lt;b&gt;refChef&lt;/b&gt;&lt;/u&gt;" style="text;html=1;align=center;verticalAlign=middle;resizable=0;points=[];autosize=1;strokeColor=none;fillColor=none;" vertex="1" parent="LvmRNkCIbL3GWUBd5G5_-1">
          <mxGeometry x="65" y="30" width="70" height="30" as="geometry" />
        </mxCell>
        <mxCell id="LvmRNkCIbL3GWUBd5G5_-3" value="nom" style="text;html=1;align=center;verticalAlign=middle;resizable=0;points=[];autosize=1;strokeColor=none;fillColor=none;" vertex="1" parent="LvmRNkCIbL3GWUBd5G5_-1">
          <mxGeometry x="75" y="60" width="50" height="30" as="geometry" />
        </mxCell>
        <mxCell id="LvmRNkCIbL3GWUBd5G5_-4" value="prenom" style="text;html=1;align=center;verticalAlign=middle;resizable=0;points=[];autosize=1;strokeColor=none;fillColor=none;" vertex="1" parent="LvmRNkCIbL3GWUBd5G5_-1">
          <mxGeometry x="70" y="85" width="60" height="30" as="geometry" />
        </mxCell>
        <mxCell id="LvmRNkCIbL3GWUBd5G5_-5" value="dateNaissance" style="text;html=1;align=center;verticalAlign=middle;resizable=0;points=[];autosize=1;strokeColor=none;fillColor=none;" vertex="1" parent="LvmRNkCIbL3GWUBd5G5_-1">
          <mxGeometry x="50" y="115" width="100" height="30" as="geometry" />
        </mxCell>
        <mxCell id="LvmRNkCIbL3GWUBd5G5_-6" value="experiencePro" style="text;html=1;align=center;verticalAlign=middle;resizable=0;points=[];autosize=1;strokeColor=none;fillColor=none;" vertex="1" parent="LvmRNkCIbL3GWUBd5G5_-1">
          <mxGeometry x="50" y="150" width="100" height="30" as="geometry" />
        </mxCell>
        <mxCell id="LvmRNkCIbL3GWUBd5G5_-7" value="typecuisine" style="swimlane;fontStyle=0;childLayout=stackLayout;horizontal=1;startSize=30;horizontalStack=0;resizeParent=1;resizeParentMax=0;resizeLast=0;collapsible=1;marginBottom=0;whiteSpace=wrap;html=1;" vertex="1" parent="1">
          <mxGeometry x="70" y="285" width="140" height="90" as="geometry" />
        </mxCell>
        <mxCell id="LvmRNkCIbL3GWUBd5G5_-8" value="&lt;u&gt;&lt;b&gt;refTypeCuisine&lt;/b&gt;&lt;/u&gt;" style="text;strokeColor=none;fillColor=none;align=center;verticalAlign=middle;spacingLeft=4;spacingRight=4;overflow=hidden;points=[[0,0.5],[1,0.5]];portConstraint=eastwest;rotatable=0;whiteSpace=wrap;html=1;" vertex="1" parent="LvmRNkCIbL3GWUBd5G5_-7">
          <mxGeometry y="30" width="140" height="30" as="geometry" />
        </mxCell>
        <mxCell id="LvmRNkCIbL3GWUBd5G5_-9" value="styleCuisine" style="text;strokeColor=none;fillColor=none;align=center;verticalAlign=middle;spacingLeft=4;spacingRight=4;overflow=hidden;points=[[0,0.5],[1,0.5]];portConstraint=eastwest;rotatable=0;whiteSpace=wrap;html=1;" vertex="1" parent="LvmRNkCIbL3GWUBd5G5_-7">
          <mxGeometry y="60" width="140" height="30" as="geometry" />
        </mxCell>
        <mxCell id="LvmRNkCIbL3GWUBd5G5_-13" style="edgeStyle=orthogonalEdgeStyle;rounded=0;orthogonalLoop=1;jettySize=auto;html=1;endArrow=none;startFill=0;" edge="1" parent="1" source="LvmRNkCIbL3GWUBd5G5_-11" target="LvmRNkCIbL3GWUBd5G5_-7">
          <mxGeometry relative="1" as="geometry" />
        </mxCell>
        <mxCell id="LvmRNkCIbL3GWUBd5G5_-15" value="1, n" style="edgeLabel;html=1;align=center;verticalAlign=middle;resizable=0;points=[];" connectable="0" vertex="1" parent="LvmRNkCIbL3GWUBd5G5_-13">
          <mxGeometry x="0.6222" y="2" relative="1" as="geometry">
            <mxPoint as="offset" />
          </mxGeometry>
        </mxCell>
        <mxCell id="LvmRNkCIbL3GWUBd5G5_-11" value="Avoir" style="ellipse;whiteSpace=wrap;html=1;" vertex="1" parent="1">
          <mxGeometry x="80" y="465" width="120" height="80" as="geometry" />
        </mxCell>
        <mxCell id="LvmRNkCIbL3GWUBd5G5_-16" value="restaurant" style="swimlane;fontStyle=0;childLayout=stackLayout;horizontal=1;startSize=30;horizontalStack=0;resizeParent=1;resizeParentMax=0;resizeLast=0;collapsible=1;marginBottom=0;whiteSpace=wrap;html=1;" vertex="1" parent="1">
          <mxGeometry x="610" y="270" width="140" height="180" as="geometry" />
        </mxCell>
        <mxCell id="LvmRNkCIbL3GWUBd5G5_-17" value="&lt;u&gt;&lt;b&gt;refRestaurant&lt;/b&gt;&lt;/u&gt;" style="text;strokeColor=none;fillColor=none;align=center;verticalAlign=middle;spacingLeft=4;spacingRight=4;overflow=hidden;points=[[0,0.5],[1,0.5]];portConstraint=eastwest;rotatable=0;whiteSpace=wrap;html=1;" vertex="1" parent="LvmRNkCIbL3GWUBd5G5_-16">
          <mxGeometry y="30" width="140" height="30" as="geometry" />
        </mxCell>
        <mxCell id="LvmRNkCIbL3GWUBd5G5_-18" value="nomRestaurant" style="text;strokeColor=none;fillColor=none;align=center;verticalAlign=middle;spacingLeft=4;spacingRight=4;overflow=hidden;points=[[0,0.5],[1,0.5]];portConstraint=eastwest;rotatable=0;whiteSpace=wrap;html=1;" vertex="1" parent="LvmRNkCIbL3GWUBd5G5_-16">
          <mxGeometry y="60" width="140" height="30" as="geometry" />
        </mxCell>
        <mxCell id="LvmRNkCIbL3GWUBd5G5_-19" value="adresse" style="text;strokeColor=none;fillColor=none;align=center;verticalAlign=middle;spacingLeft=4;spacingRight=4;overflow=hidden;points=[[0,0.5],[1,0.5]];portConstraint=eastwest;rotatable=0;whiteSpace=wrap;html=1;" vertex="1" parent="LvmRNkCIbL3GWUBd5G5_-16">
          <mxGeometry y="90" width="140" height="30" as="geometry" />
        </mxCell>
        <mxCell id="LvmRNkCIbL3GWUBd5G5_-25" value="styleCuisinePrincipal" style="text;strokeColor=none;fillColor=none;align=center;verticalAlign=middle;spacingLeft=4;spacingRight=4;overflow=hidden;points=[[0,0.5],[1,0.5]];portConstraint=eastwest;rotatable=0;whiteSpace=wrap;html=1;" vertex="1" parent="LvmRNkCIbL3GWUBd5G5_-16">
          <mxGeometry y="120" width="140" height="30" as="geometry" />
        </mxCell>
        <mxCell id="LvmRNkCIbL3GWUBd5G5_-26" value="capacite" style="text;strokeColor=none;fillColor=none;align=center;verticalAlign=middle;spacingLeft=4;spacingRight=4;overflow=hidden;points=[[0,0.5],[1,0.5]];portConstraint=eastwest;rotatable=0;whiteSpace=wrap;html=1;" vertex="1" parent="LvmRNkCIbL3GWUBd5G5_-16">
          <mxGeometry y="150" width="140" height="30" as="geometry" />
        </mxCell>
        <mxCell id="LvmRNkCIbL3GWUBd5G5_-22" style="edgeStyle=orthogonalEdgeStyle;rounded=0;orthogonalLoop=1;jettySize=auto;html=1;endArrow=none;startFill=0;" edge="1" parent="1" source="LvmRNkCIbL3GWUBd5G5_-20" target="LvmRNkCIbL3GWUBd5G5_-7">
          <mxGeometry relative="1" as="geometry" />
        </mxCell>
        <mxCell id="LvmRNkCIbL3GWUBd5G5_-24" value="1,n" style="edgeLabel;html=1;align=center;verticalAlign=middle;resizable=0;points=[];" connectable="0" vertex="1" parent="LvmRNkCIbL3GWUBd5G5_-22">
          <mxGeometry x="0.4987" y="-2" relative="1" as="geometry">
            <mxPoint as="offset" />
          </mxGeometry>
        </mxCell>
        <mxCell id="LvmRNkCIbL3GWUBd5G5_-20" value="PossÃ¨de" style="ellipse;whiteSpace=wrap;html=1;" vertex="1" parent="1">
          <mxGeometry x="334" y="275" width="120" height="80" as="geometry" />
        </mxCell>
        <mxCell id="LvmRNkCIbL3GWUBd5G5_-21" style="edgeStyle=orthogonalEdgeStyle;rounded=0;orthogonalLoop=1;jettySize=auto;html=1;entryX=0.967;entryY=0.688;entryDx=0;entryDy=0;entryPerimeter=0;endArrow=none;startFill=0;" edge="1" parent="1" source="LvmRNkCIbL3GWUBd5G5_-16" target="LvmRNkCIbL3GWUBd5G5_-20">
          <mxGeometry relative="1" as="geometry" />
        </mxCell>
        <mxCell id="LvmRNkCIbL3GWUBd5G5_-23" value="1, n" style="edgeLabel;html=1;align=center;verticalAlign=middle;resizable=0;points=[];" connectable="0" vertex="1" parent="LvmRNkCIbL3GWUBd5G5_-21">
          <mxGeometry x="-0.7249" y="-2" relative="1" as="geometry">
            <mxPoint as="offset" />
          </mxGeometry>
        </mxCell>
        <mxCell id="LvmRNkCIbL3GWUBd5G5_-29" style="edgeStyle=orthogonalEdgeStyle;rounded=0;orthogonalLoop=1;jettySize=auto;html=1;endArrow=none;startFill=0;" edge="1" parent="1" source="LvmRNkCIbL3GWUBd5G5_-27" target="LvmRNkCIbL3GWUBd5G5_-16">
          <mxGeometry relative="1" as="geometry" />
        </mxCell>
        <mxCell id="LvmRNkCIbL3GWUBd5G5_-31" value="1,n" style="edgeLabel;html=1;align=center;verticalAlign=middle;resizable=0;points=[];" connectable="0" vertex="1" parent="LvmRNkCIbL3GWUBd5G5_-29">
          <mxGeometry x="0.6978" y="1" relative="1" as="geometry">
            <mxPoint as="offset" />
          </mxGeometry>
        </mxCell>
        <mxCell id="LvmRNkCIbL3GWUBd5G5_-27" value="Travailler&lt;div&gt;&lt;br&gt;&lt;/div&gt;&lt;div&gt;roleChef&lt;/div&gt;" style="ellipse;whiteSpace=wrap;html=1;" vertex="1" parent="1">
          <mxGeometry x="600" y="505" width="120" height="80" as="geometry" />
        </mxCell>
        <mxCell id="LvmRNkCIbL3GWUBd5G5_-40" value="" style="endArrow=none;html=1;rounded=0;entryX=1;entryY=0.5;entryDx=0;entryDy=0;exitX=0;exitY=0.5;exitDx=0;exitDy=0;" edge="1" parent="1" source="LvmRNkCIbL3GWUBd5G5_-27" target="LvmRNkCIbL3GWUBd5G5_-27">
          <mxGeometry width="50" height="50" relative="1" as="geometry">
            <mxPoint x="570" y="645" as="sourcePoint" />
            <mxPoint x="620" y="595" as="targetPoint" />
          </mxGeometry>
        </mxCell>
        <mxCell id="LvmRNkCIbL3GWUBd5G5_-41" value="&lt;font style=&quot;font-size: 48px;&quot;&gt;MCD&lt;/font&gt;" style="text;html=1;align=center;verticalAlign=middle;resizable=0;points=[];autosize=1;strokeColor=none;fillColor=none;" vertex="1" parent="1">
          <mxGeometry x="329" y="110" width="130" height="70" as="geometry" />
        </mxCell>
        <mxCell id="LvmRNkCIbL3GWUBd5G5_-46" value="chefs" style="swimlane;whiteSpace=wrap;html=1;" vertex="1" parent="1">
          <mxGeometry x="1244" y="485" width="146" height="200" as="geometry" />
        </mxCell>
        <mxCell id="LvmRNkCIbL3GWUBd5G5_-47" value="&lt;u&gt;&lt;b&gt;id&lt;/b&gt;&lt;/u&gt;" style="text;html=1;align=left;verticalAlign=middle;resizable=0;points=[];autosize=1;strokeColor=none;fillColor=none;" vertex="1" parent="LvmRNkCIbL3GWUBd5G5_-46">
          <mxGeometry x="5" y="30" width="30" height="30" as="geometry" />
        </mxCell>
        <mxCell id="LvmRNkCIbL3GWUBd5G5_-48" value="nom" style="text;html=1;align=left;verticalAlign=middle;resizable=0;points=[];autosize=1;strokeColor=none;fillColor=none;" vertex="1" parent="LvmRNkCIbL3GWUBd5G5_-46">
          <mxGeometry x="5" y="60" width="50" height="30" as="geometry" />
        </mxCell>
        <mxCell id="LvmRNkCIbL3GWUBd5G5_-49" value="prenom" style="text;html=1;align=left;verticalAlign=middle;resizable=0;points=[];autosize=1;strokeColor=none;fillColor=none;" vertex="1" parent="LvmRNkCIbL3GWUBd5G5_-46">
          <mxGeometry x="5" y="85" width="60" height="30" as="geometry" />
        </mxCell>
        <mxCell id="LvmRNkCIbL3GWUBd5G5_-50" value="dateNaissance" style="text;html=1;align=left;verticalAlign=middle;resizable=0;points=[];autosize=1;strokeColor=none;fillColor=none;" vertex="1" parent="LvmRNkCIbL3GWUBd5G5_-46">
          <mxGeometry y="115" width="100" height="30" as="geometry" />
        </mxCell>
        <mxCell id="LvmRNkCIbL3GWUBd5G5_-51" value="experiencePro" style="text;html=1;align=left;verticalAlign=middle;resizable=0;points=[];autosize=1;strokeColor=none;fillColor=none;" vertex="1" parent="LvmRNkCIbL3GWUBd5G5_-46">
          <mxGeometry y="150" width="100" height="30" as="geometry" />
        </mxCell>
        <mxCell id="LvmRNkCIbL3GWUBd5G5_-52" value="typescuisines" style="swimlane;fontStyle=0;childLayout=stackLayout;horizontal=1;startSize=30;horizontalStack=0;resizeParent=1;resizeParentMax=0;resizeLast=0;collapsible=1;marginBottom=0;whiteSpace=wrap;html=1;" vertex="1" parent="1">
          <mxGeometry x="1020" y="365" width="140" height="90" as="geometry" />
        </mxCell>
        <mxCell id="LvmRNkCIbL3GWUBd5G5_-53" value="&lt;u&gt;&lt;b&gt;id&lt;/b&gt;&lt;/u&gt;" style="text;strokeColor=none;fillColor=none;align=left;verticalAlign=middle;spacingLeft=4;spacingRight=4;overflow=hidden;points=[[0,0.5],[1,0.5]];portConstraint=eastwest;rotatable=0;whiteSpace=wrap;html=1;" vertex="1" parent="LvmRNkCIbL3GWUBd5G5_-52">
          <mxGeometry y="30" width="140" height="30" as="geometry" />
        </mxCell>
        <mxCell id="LvmRNkCIbL3GWUBd5G5_-54" value="styleCuisine" style="text;strokeColor=none;fillColor=none;align=left;verticalAlign=middle;spacingLeft=4;spacingRight=4;overflow=hidden;points=[[0,0.5],[1,0.5]];portConstraint=eastwest;rotatable=0;whiteSpace=wrap;html=1;" vertex="1" parent="LvmRNkCIbL3GWUBd5G5_-52">
          <mxGeometry y="60" width="140" height="30" as="geometry" />
        </mxCell>
        <mxCell id="LvmRNkCIbL3GWUBd5G5_-58" value="restaurants" style="swimlane;fontStyle=0;childLayout=stackLayout;horizontal=1;startSize=30;horizontalStack=0;resizeParent=1;resizeParentMax=0;resizeLast=0;collapsible=1;marginBottom=0;whiteSpace=wrap;html=1;" vertex="1" parent="1">
          <mxGeometry x="1560" y="350" width="140" height="180" as="geometry" />
        </mxCell>
        <mxCell id="LvmRNkCIbL3GWUBd5G5_-59" value="&lt;u&gt;&lt;b&gt;id&lt;/b&gt;&lt;/u&gt;" style="text;strokeColor=none;fillColor=none;align=left;verticalAlign=middle;spacingLeft=4;spacingRight=4;overflow=hidden;points=[[0,0.5],[1,0.5]];portConstraint=eastwest;rotatable=0;whiteSpace=wrap;html=1;" vertex="1" parent="LvmRNkCIbL3GWUBd5G5_-58">
          <mxGeometry y="30" width="140" height="30" as="geometry" />
        </mxCell>
        <mxCell id="LvmRNkCIbL3GWUBd5G5_-60" value="nomRestaurant" style="text;strokeColor=none;fillColor=none;align=left;verticalAlign=middle;spacingLeft=4;spacingRight=4;overflow=hidden;points=[[0,0.5],[1,0.5]];portConstraint=eastwest;rotatable=0;whiteSpace=wrap;html=1;" vertex="1" parent="LvmRNkCIbL3GWUBd5G5_-58">
          <mxGeometry y="60" width="140" height="30" as="geometry" />
        </mxCell>
        <mxCell id="LvmRNkCIbL3GWUBd5G5_-61" value="adresse" style="text;strokeColor=none;fillColor=none;align=left;verticalAlign=middle;spacingLeft=4;spacingRight=4;overflow=hidden;points=[[0,0.5],[1,0.5]];portConstraint=eastwest;rotatable=0;whiteSpace=wrap;html=1;" vertex="1" parent="LvmRNkCIbL3GWUBd5G5_-58">
          <mxGeometry y="90" width="140" height="30" as="geometry" />
        </mxCell>
        <mxCell id="LvmRNkCIbL3GWUBd5G5_-62" value="styleCuisinePrincipal" style="text;strokeColor=none;fillColor=none;align=left;verticalAlign=middle;spacingLeft=4;spacingRight=4;overflow=hidden;points=[[0,0.5],[1,0.5]];portConstraint=eastwest;rotatable=0;whiteSpace=wrap;html=1;" vertex="1" parent="LvmRNkCIbL3GWUBd5G5_-58">
          <mxGeometry y="120" width="140" height="30" as="geometry" />
        </mxCell>
        <mxCell id="LvmRNkCIbL3GWUBd5G5_-63" value="capacite" style="text;strokeColor=none;fillColor=none;align=left;verticalAlign=middle;spacingLeft=4;spacingRight=4;overflow=hidden;points=[[0,0.5],[1,0.5]];portConstraint=eastwest;rotatable=0;whiteSpace=wrap;html=1;" vertex="1" parent="LvmRNkCIbL3GWUBd5G5_-58">
          <mxGeometry y="150" width="140" height="30" as="geometry" />
        </mxCell>
        <mxCell id="LvmRNkCIbL3GWUBd5G5_-73" value="&lt;font style=&quot;font-size: 48px;&quot;&gt;MLD&lt;/font&gt;" style="text;html=1;align=center;verticalAlign=middle;resizable=0;points=[];autosize=1;strokeColor=none;fillColor=none;" vertex="1" parent="1">
          <mxGeometry x="1324" y="60" width="120" height="70" as="geometry" />
        </mxCell>
        <mxCell id="LvmRNkCIbL3GWUBd5G5_-74" value="restaurants_typescuisines" style="swimlane;fontStyle=0;childLayout=stackLayout;horizontal=1;startSize=30;horizontalStack=0;resizeParent=1;resizeParentMax=0;resizeLast=0;collapsible=1;marginBottom=0;whiteSpace=wrap;html=1;" vertex="1" parent="1">
          <mxGeometry x="1290" y="220" width="140" height="90" as="geometry" />
        </mxCell>
        <mxCell id="LvmRNkCIbL3GWUBd5G5_-77" value="&lt;u&gt;&lt;b&gt;#restaurant_id&lt;/b&gt;&lt;/u&gt;" style="text;strokeColor=none;fillColor=none;align=left;verticalAlign=middle;spacingLeft=4;spacingRight=4;overflow=hidden;points=[[0,0.5],[1,0.5]];portConstraint=eastwest;rotatable=0;whiteSpace=wrap;html=1;" vertex="1" parent="LvmRNkCIbL3GWUBd5G5_-74">
          <mxGeometry y="30" width="140" height="30" as="geometry" />
        </mxCell>
        <mxCell id="LvmRNkCIbL3GWUBd5G5_-75" value="&lt;u&gt;&lt;b&gt;#typecuisine_id&lt;/b&gt;&lt;/u&gt;" style="text;strokeColor=none;fillColor=none;align=left;verticalAlign=middle;spacingLeft=4;spacingRight=4;overflow=hidden;points=[[0,0.5],[1,0.5]];portConstraint=eastwest;rotatable=0;whiteSpace=wrap;html=1;" vertex="1" parent="LvmRNkCIbL3GWUBd5G5_-74">
          <mxGeometry y="60" width="140" height="30" as="geometry" />
        </mxCell>
        <mxCell id="LvmRNkCIbL3GWUBd5G5_-78" value="" style="endArrow=none;html=1;rounded=0;entryX=1;entryY=0.5;entryDx=0;entryDy=0;exitX=0;exitY=0.5;exitDx=0;exitDy=0;" edge="1" parent="1" source="LvmRNkCIbL3GWUBd5G5_-59" target="LvmRNkCIbL3GWUBd5G5_-77">
          <mxGeometry width="50" height="50" relative="1" as="geometry">
            <mxPoint x="1300" y="410" as="sourcePoint" />
            <mxPoint x="1350" y="360" as="targetPoint" />
          </mxGeometry>
        </mxCell>
        <mxCell id="LvmRNkCIbL3GWUBd5G5_-80" value="" style="endArrow=none;html=1;rounded=0;entryX=0;entryY=0.5;entryDx=0;entryDy=0;exitX=1;exitY=0.5;exitDx=0;exitDy=0;" edge="1" parent="1" source="LvmRNkCIbL3GWUBd5G5_-53" target="LvmRNkCIbL3GWUBd5G5_-75">
          <mxGeometry width="50" height="50" relative="1" as="geometry">
            <mxPoint x="1360" y="450" as="sourcePoint" />
            <mxPoint x="1230" y="320" as="targetPoint" />
          </mxGeometry>
        </mxCell>
        <mxCell id="LvmRNkCIbL3GWUBd5G5_-81" value="chefs_typescuisines" style="swimlane;fontStyle=0;childLayout=stackLayout;horizontal=1;startSize=30;horizontalStack=0;resizeParent=1;resizeParentMax=0;resizeLast=0;collapsible=1;marginBottom=0;whiteSpace=wrap;html=1;" vertex="1" parent="1">
          <mxGeometry x="1020" y="545" width="140" height="90" as="geometry" />
        </mxCell>
        <mxCell id="LvmRNkCIbL3GWUBd5G5_-82" value="&lt;u&gt;&lt;b&gt;#typecuisine_id&lt;/b&gt;&lt;/u&gt;" style="text;strokeColor=none;fillColor=none;align=left;verticalAlign=middle;spacingLeft=4;spacingRight=4;overflow=hidden;points=[[0,0.5],[1,0.5]];portConstraint=eastwest;rotatable=0;whiteSpace=wrap;html=1;" vertex="1" parent="LvmRNkCIbL3GWUBd5G5_-81">
          <mxGeometry y="30" width="140" height="30" as="geometry" />
        </mxCell>
        <mxCell id="LvmRNkCIbL3GWUBd5G5_-84" value="&lt;u&gt;&lt;b&gt;#chef_id&lt;/b&gt;&lt;/u&gt;" style="text;strokeColor=none;fillColor=none;align=left;verticalAlign=middle;spacingLeft=4;spacingRight=4;overflow=hidden;points=[[0,0.5],[1,0.5]];portConstraint=eastwest;rotatable=0;whiteSpace=wrap;html=1;" vertex="1" parent="LvmRNkCIbL3GWUBd5G5_-81">
          <mxGeometry y="60" width="140" height="30" as="geometry" />
        </mxCell>
        <mxCell id="LvmRNkCIbL3GWUBd5G5_-85" value="" style="endArrow=none;html=1;rounded=0;exitX=1;exitY=0.5;exitDx=0;exitDy=0;" edge="1" parent="1" source="LvmRNkCIbL3GWUBd5G5_-84">
          <mxGeometry width="50" height="50" relative="1" as="geometry">
            <mxPoint x="1110" y="630" as="sourcePoint" />
            <mxPoint x="1240" y="531" as="targetPoint" />
          </mxGeometry>
        </mxCell>
        <mxCell id="LvmRNkCIbL3GWUBd5G5_-86" value="" style="endArrow=none;html=1;rounded=0;exitX=1;exitY=0.5;exitDx=0;exitDy=0;" edge="1" parent="1" source="LvmRNkCIbL3GWUBd5G5_-82" target="LvmRNkCIbL3GWUBd5G5_-53">
          <mxGeometry width="50" height="50" relative="1" as="geometry">
            <mxPoint x="1110" y="660" as="sourcePoint" />
            <mxPoint x="1160" y="610" as="targetPoint" />
          </mxGeometry>
        </mxCell>
        <mxCell id="LvmRNkCIbL3GWUBd5G5_-87" value="chefs_restaurants" style="swimlane;fontStyle=0;childLayout=stackLayout;horizontal=1;startSize=30;horizontalStack=0;resizeParent=1;resizeParentMax=0;resizeLast=0;collapsible=1;marginBottom=0;whiteSpace=wrap;html=1;" vertex="1" parent="1">
          <mxGeometry x="1490" y="650" width="140" height="120" as="geometry" />
        </mxCell>
        <mxCell id="LvmRNkCIbL3GWUBd5G5_-89" value="&lt;u&gt;&lt;b&gt;#chef_id&lt;/b&gt;&lt;/u&gt;" style="text;strokeColor=none;fillColor=none;align=left;verticalAlign=middle;spacingLeft=4;spacingRight=4;overflow=hidden;points=[[0,0.5],[1,0.5]];portConstraint=eastwest;rotatable=0;whiteSpace=wrap;html=1;" vertex="1" parent="LvmRNkCIbL3GWUBd5G5_-87">
          <mxGeometry y="30" width="140" height="30" as="geometry" />
        </mxCell>
        <mxCell id="LvmRNkCIbL3GWUBd5G5_-88" value="&lt;u&gt;&lt;b&gt;#restaurant_id&lt;/b&gt;&lt;/u&gt;" style="text;strokeColor=none;fillColor=none;align=left;verticalAlign=middle;spacingLeft=4;spacingRight=4;overflow=hidden;points=[[0,0.5],[1,0.5]];portConstraint=eastwest;rotatable=0;whiteSpace=wrap;html=1;" vertex="1" parent="LvmRNkCIbL3GWUBd5G5_-87">
          <mxGeometry y="60" width="140" height="30" as="geometry" />
        </mxCell>
        <mxCell id="LvmRNkCIbL3GWUBd5G5_-90" value="roleChef" style="text;strokeColor=none;fillColor=none;align=left;verticalAlign=middle;spacingLeft=4;spacingRight=4;overflow=hidden;points=[[0,0.5],[1,0.5]];portConstraint=eastwest;rotatable=0;whiteSpace=wrap;html=1;" vertex="1" parent="LvmRNkCIbL3GWUBd5G5_-87">
          <mxGeometry y="90" width="140" height="30" as="geometry" />
        </mxCell>
        <mxCell id="LvmRNkCIbL3GWUBd5G5_-91" value="" style="endArrow=none;html=1;rounded=0;exitX=0;exitY=0.5;exitDx=0;exitDy=0;entryX=1;entryY=0.25;entryDx=0;entryDy=0;" edge="1" parent="1" source="LvmRNkCIbL3GWUBd5G5_-89" target="LvmRNkCIbL3GWUBd5G5_-46">
          <mxGeometry width="50" height="50" relative="1" as="geometry">
            <mxPoint x="1500" y="640" as="sourcePoint" />
            <mxPoint x="1550" y="590" as="targetPoint" />
          </mxGeometry>
        </mxCell>
        <mxCell id="LvmRNkCIbL3GWUBd5G5_-92" value="" style="endArrow=none;html=1;rounded=0;exitX=0.95;exitY=0.908;exitDx=0;exitDy=0;exitPerimeter=0;entryX=0.991;entryY=0.351;entryDx=0;entryDy=0;entryPerimeter=0;" edge="1" parent="1" source="LvmRNkCIbL3GWUBd5G5_-59" target="LvmRNkCIbL3GWUBd5G5_-88">
          <mxGeometry width="50" height="50" relative="1" as="geometry">
            <mxPoint x="1500" y="640" as="sourcePoint" />
            <mxPoint x="1550" y="590" as="targetPoint" />
          </mxGeometry>
        </mxCell>
        <mxCell id="LvmRNkCIbL3GWUBd5G5_-125" value="chefs" style="swimlane;whiteSpace=wrap;html=1;" vertex="1" parent="1">
          <mxGeometry x="2194" y="595" width="195" height="200" as="geometry" />
        </mxCell>
        <mxCell id="LvmRNkCIbL3GWUBd5G5_-126" value="&lt;b style=&quot;&quot;&gt;&lt;u&gt;id&amp;nbsp;&lt;/u&gt;&amp;nbsp; &amp;nbsp; &amp;nbsp; &amp;nbsp; &amp;nbsp; &amp;nbsp; &amp;nbsp; &amp;nbsp; &amp;nbsp; &amp;nbsp; &amp;nbsp; &amp;nbsp; &lt;/b&gt;Int" style="text;html=1;align=left;verticalAlign=middle;resizable=0;points=[];autosize=1;strokeColor=none;fillColor=none;" vertex="1" parent="LvmRNkCIbL3GWUBd5G5_-125">
          <mxGeometry x="5" y="30" width="130" height="30" as="geometry" />
        </mxCell>
        <mxCell id="LvmRNkCIbL3GWUBd5G5_-127" value="nom&amp;nbsp; &amp;nbsp; &amp;nbsp; &amp;nbsp; &amp;nbsp; &amp;nbsp; &amp;nbsp; &amp;nbsp; &amp;nbsp; &amp;nbsp; &amp;nbsp;Varchar(70)" style="text;html=1;align=left;verticalAlign=middle;resizable=0;points=[];autosize=1;strokeColor=none;fillColor=none;" vertex="1" parent="LvmRNkCIbL3GWUBd5G5_-125">
          <mxGeometry x="5" y="60" width="180" height="30" as="geometry" />
        </mxCell>
        <mxCell id="LvmRNkCIbL3GWUBd5G5_-128" value="prenom&amp;nbsp; &amp;nbsp; &amp;nbsp; &amp;nbsp; &amp;nbsp; &amp;nbsp; &amp;nbsp; &amp;nbsp; Varchar(120)" style="text;html=1;align=left;verticalAlign=middle;resizable=0;points=[];autosize=1;strokeColor=none;fillColor=none;" vertex="1" parent="LvmRNkCIbL3GWUBd5G5_-125">
          <mxGeometry x="5" y="85" width="190" height="30" as="geometry" />
        </mxCell>
        <mxCell id="LvmRNkCIbL3GWUBd5G5_-129" value="dateNaissance&amp;nbsp; &amp;nbsp; &amp;nbsp; Date" style="text;html=1;align=left;verticalAlign=middle;resizable=0;points=[];autosize=1;strokeColor=none;fillColor=none;" vertex="1" parent="LvmRNkCIbL3GWUBd5G5_-125">
          <mxGeometry y="115" width="150" height="30" as="geometry" />
        </mxCell>
        <mxCell id="LvmRNkCIbL3GWUBd5G5_-130" value="experiencePro&amp;nbsp; &amp;nbsp; &amp;nbsp; &amp;nbsp;Int" style="text;html=1;align=left;verticalAlign=middle;resizable=0;points=[];autosize=1;strokeColor=none;fillColor=none;" vertex="1" parent="LvmRNkCIbL3GWUBd5G5_-125">
          <mxGeometry y="150" width="140" height="30" as="geometry" />
        </mxCell>
        <mxCell id="LvmRNkCIbL3GWUBd5G5_-131" value="typescuisines" style="swimlane;fontStyle=0;childLayout=stackLayout;horizontal=1;startSize=30;horizontalStack=0;resizeParent=1;resizeParentMax=0;resizeLast=0;collapsible=1;marginBottom=0;whiteSpace=wrap;html=1;" vertex="1" parent="1">
          <mxGeometry x="1970" y="475" width="170" height="90" as="geometry" />
        </mxCell>
        <mxCell id="LvmRNkCIbL3GWUBd5G5_-132" value="&lt;b style=&quot;&quot;&gt;&lt;u&gt;id&lt;/u&gt;&amp;nbsp; &amp;nbsp; &amp;nbsp; &amp;nbsp; &amp;nbsp; &amp;nbsp; &amp;nbsp; &amp;nbsp; &amp;nbsp; &amp;nbsp;&lt;/b&gt;Int" style="text;strokeColor=none;fillColor=none;align=left;verticalAlign=middle;spacingLeft=4;spacingRight=4;overflow=hidden;points=[[0,0.5],[1,0.5]];portConstraint=eastwest;rotatable=0;whiteSpace=wrap;html=1;" vertex="1" parent="LvmRNkCIbL3GWUBd5G5_-131">
          <mxGeometry y="30" width="170" height="30" as="geometry" />
        </mxCell>
        <mxCell id="LvmRNkCIbL3GWUBd5G5_-133" value="styleCuisine&amp;nbsp; Varchar (120)" style="text;strokeColor=none;fillColor=none;align=left;verticalAlign=middle;spacingLeft=4;spacingRight=4;overflow=hidden;points=[[0,0.5],[1,0.5]];portConstraint=eastwest;rotatable=0;whiteSpace=wrap;html=1;" vertex="1" parent="LvmRNkCIbL3GWUBd5G5_-131">
          <mxGeometry y="60" width="170" height="30" as="geometry" />
        </mxCell>
        <mxCell id="LvmRNkCIbL3GWUBd5G5_-134" value="restaurants" style="swimlane;fontStyle=0;childLayout=stackLayout;horizontal=1;startSize=30;horizontalStack=0;resizeParent=1;resizeParentMax=0;resizeLast=0;collapsible=1;marginBottom=0;whiteSpace=wrap;html=1;" vertex="1" parent="1">
          <mxGeometry x="2510" y="460" width="220" height="180" as="geometry" />
        </mxCell>
        <mxCell id="LvmRNkCIbL3GWUBd5G5_-135" value="&lt;b style=&quot;text-decoration-line: underline;&quot;&gt;id&lt;/b&gt;&amp;nbsp; &amp;nbsp; &amp;nbsp; &amp;nbsp; &amp;nbsp; &amp;nbsp; &amp;nbsp; &amp;nbsp; &amp;nbsp; &amp;nbsp; &amp;nbsp; &amp;nbsp; &amp;nbsp; &amp;nbsp; &amp;nbsp; &amp;nbsp; &amp;nbsp; &amp;nbsp; &amp;nbsp;Int" style="text;strokeColor=none;fillColor=none;align=left;verticalAlign=middle;spacingLeft=4;spacingRight=4;overflow=hidden;points=[[0,0.5],[1,0.5]];portConstraint=eastwest;rotatable=0;whiteSpace=wrap;html=1;" vertex="1" parent="LvmRNkCIbL3GWUBd5G5_-134">
          <mxGeometry y="30" width="220" height="30" as="geometry" />
        </mxCell>
        <mxCell id="LvmRNkCIbL3GWUBd5G5_-136" value="nomRestaurant&amp;nbsp; &amp;nbsp; &amp;nbsp; &amp;nbsp; &amp;nbsp; &amp;nbsp; &amp;nbsp; &amp;nbsp;Varchar(120)" style="text;strokeColor=none;fillColor=none;align=left;verticalAlign=middle;spacingLeft=4;spacingRight=4;overflow=hidden;points=[[0,0.5],[1,0.5]];portConstraint=eastwest;rotatable=0;whiteSpace=wrap;html=1;" vertex="1" parent="LvmRNkCIbL3GWUBd5G5_-134">
          <mxGeometry y="60" width="220" height="30" as="geometry" />
        </mxCell>
        <mxCell id="LvmRNkCIbL3GWUBd5G5_-137" value="adresse&amp;nbsp; &amp;nbsp; &amp;nbsp; &amp;nbsp; &amp;nbsp; &amp;nbsp; &amp;nbsp; &amp;nbsp; &amp;nbsp; &amp;nbsp; &amp;nbsp; &amp;nbsp; &amp;nbsp; &amp;nbsp;Varchar(120)" style="text;strokeColor=none;fillColor=none;align=left;verticalAlign=middle;spacingLeft=4;spacingRight=4;overflow=hidden;points=[[0,0.5],[1,0.5]];portConstraint=eastwest;rotatable=0;whiteSpace=wrap;html=1;" vertex="1" parent="LvmRNkCIbL3GWUBd5G5_-134">
          <mxGeometry y="90" width="220" height="30" as="geometry" />
        </mxCell>
        <mxCell id="LvmRNkCIbL3GWUBd5G5_-138" value="styleCuisinePrincipal&amp;nbsp; &amp;nbsp; &amp;nbsp; &amp;nbsp;Varchar(90)" style="text;strokeColor=none;fillColor=none;align=left;verticalAlign=middle;spacingLeft=4;spacingRight=4;overflow=hidden;points=[[0,0.5],[1,0.5]];portConstraint=eastwest;rotatable=0;whiteSpace=wrap;html=1;" vertex="1" parent="LvmRNkCIbL3GWUBd5G5_-134">
          <mxGeometry y="120" width="220" height="30" as="geometry" />
        </mxCell>
        <mxCell id="LvmRNkCIbL3GWUBd5G5_-139" value="capacite&amp;nbsp; &amp;nbsp; &amp;nbsp; &amp;nbsp; &amp;nbsp; &amp;nbsp; &amp;nbsp; &amp;nbsp; &amp;nbsp; &amp;nbsp; &amp;nbsp; &amp;nbsp; &amp;nbsp; &amp;nbsp;Int" style="text;strokeColor=none;fillColor=none;align=left;verticalAlign=middle;spacingLeft=4;spacingRight=4;overflow=hidden;points=[[0,0.5],[1,0.5]];portConstraint=eastwest;rotatable=0;whiteSpace=wrap;html=1;" vertex="1" parent="LvmRNkCIbL3GWUBd5G5_-134">
          <mxGeometry y="150" width="220" height="30" as="geometry" />
        </mxCell>
        <mxCell id="LvmRNkCIbL3GWUBd5G5_-140" value="&lt;font style=&quot;font-size: 48px;&quot;&gt;MPD&lt;/font&gt;" style="text;html=1;align=center;verticalAlign=middle;resizable=0;points=[];autosize=1;strokeColor=none;fillColor=none;" vertex="1" parent="1">
          <mxGeometry x="2269" y="170" width="130" height="70" as="geometry" />
        </mxCell>
        <mxCell id="LvmRNkCIbL3GWUBd5G5_-141" value="restaurants_typescuisines" style="swimlane;fontStyle=0;childLayout=stackLayout;horizontal=1;startSize=30;horizontalStack=0;resizeParent=1;resizeParentMax=0;resizeLast=0;collapsible=1;marginBottom=0;whiteSpace=wrap;html=1;" vertex="1" parent="1">
          <mxGeometry x="2240" y="330" width="190" height="90" as="geometry" />
        </mxCell>
        <mxCell id="LvmRNkCIbL3GWUBd5G5_-142" value="&lt;b style=&quot;&quot;&gt;&lt;u&gt;#id_restaurant&lt;/u&gt;&amp;nbsp; &amp;nbsp; &amp;nbsp; &amp;nbsp; &amp;nbsp; &amp;nbsp; &amp;nbsp; &amp;nbsp; &amp;nbsp; &amp;nbsp;&lt;/b&gt;Int" style="text;strokeColor=none;fillColor=none;align=left;verticalAlign=middle;spacingLeft=4;spacingRight=4;overflow=hidden;points=[[0,0.5],[1,0.5]];portConstraint=eastwest;rotatable=0;whiteSpace=wrap;html=1;" vertex="1" parent="LvmRNkCIbL3GWUBd5G5_-141">
          <mxGeometry y="30" width="190" height="30" as="geometry" />
        </mxCell>
        <mxCell id="LvmRNkCIbL3GWUBd5G5_-143" value="&lt;b style=&quot;&quot;&gt;&lt;u&gt;#id_typecuisine&lt;/u&gt;&lt;span style=&quot;text-decoration-line: underline; white-space: pre;&quot;&gt;&#x9;&lt;/span&gt;&lt;span style=&quot;text-decoration-line: underline; white-space: pre;&quot;&gt;&#x9;&lt;/span&gt;&amp;nbsp; &amp;nbsp;&lt;/b&gt;Int&lt;span style=&quot;text-decoration-line: underline; white-space: pre;&quot;&gt;&#x9;&lt;/span&gt;" style="text;strokeColor=none;fillColor=none;align=left;verticalAlign=middle;spacingLeft=4;spacingRight=4;overflow=hidden;points=[[0,0.5],[1,0.5]];portConstraint=eastwest;rotatable=0;whiteSpace=wrap;html=1;" vertex="1" parent="LvmRNkCIbL3GWUBd5G5_-141">
          <mxGeometry y="60" width="190" height="30" as="geometry" />
        </mxCell>
        <mxCell id="LvmRNkCIbL3GWUBd5G5_-144" value="" style="endArrow=none;html=1;rounded=0;entryX=1;entryY=0.5;entryDx=0;entryDy=0;exitX=0;exitY=0.5;exitDx=0;exitDy=0;" edge="1" parent="1" source="LvmRNkCIbL3GWUBd5G5_-135" target="LvmRNkCIbL3GWUBd5G5_-142">
          <mxGeometry width="50" height="50" relative="1" as="geometry">
            <mxPoint x="2250" y="520" as="sourcePoint" />
            <mxPoint x="2300" y="470" as="targetPoint" />
          </mxGeometry>
        </mxCell>
        <mxCell id="LvmRNkCIbL3GWUBd5G5_-145" value="" style="endArrow=none;html=1;rounded=0;entryX=0;entryY=0.5;entryDx=0;entryDy=0;exitX=1;exitY=0.5;exitDx=0;exitDy=0;" edge="1" parent="1" source="LvmRNkCIbL3GWUBd5G5_-132" target="LvmRNkCIbL3GWUBd5G5_-143">
          <mxGeometry width="50" height="50" relative="1" as="geometry">
            <mxPoint x="2310" y="560" as="sourcePoint" />
            <mxPoint x="2180" y="430" as="targetPoint" />
          </mxGeometry>
        </mxCell>
        <mxCell id="LvmRNkCIbL3GWUBd5G5_-146" value="chefs_typescuisines" style="swimlane;fontStyle=0;childLayout=stackLayout;horizontal=1;startSize=30;horizontalStack=0;resizeParent=1;resizeParentMax=0;resizeLast=0;collapsible=1;marginBottom=0;whiteSpace=wrap;html=1;" vertex="1" parent="1">
          <mxGeometry x="1970" y="655" width="140" height="90" as="geometry" />
        </mxCell>
        <mxCell id="LvmRNkCIbL3GWUBd5G5_-147" value="&lt;b style=&quot;&quot;&gt;&lt;u&gt;#id_typecuisine&lt;/u&gt;&amp;nbsp; &amp;nbsp; &amp;nbsp; &amp;nbsp;&lt;/b&gt;Int" style="text;strokeColor=none;fillColor=none;align=left;verticalAlign=middle;spacingLeft=4;spacingRight=4;overflow=hidden;points=[[0,0.5],[1,0.5]];portConstraint=eastwest;rotatable=0;whiteSpace=wrap;html=1;" vertex="1" parent="LvmRNkCIbL3GWUBd5G5_-146">
          <mxGeometry y="30" width="140" height="30" as="geometry" />
        </mxCell>
        <mxCell id="LvmRNkCIbL3GWUBd5G5_-148" value="&lt;u style=&quot;font-weight: bold;&quot;&gt;#id_chef&lt;/u&gt;&lt;b&gt;&amp;nbsp; &amp;nbsp; &amp;nbsp; &amp;nbsp; &amp;nbsp; &amp;nbsp; &amp;nbsp; &amp;nbsp; &amp;nbsp; &amp;nbsp;&lt;/b&gt;Int" style="text;strokeColor=none;fillColor=none;align=left;verticalAlign=middle;spacingLeft=4;spacingRight=4;overflow=hidden;points=[[0,0.5],[1,0.5]];portConstraint=eastwest;rotatable=0;whiteSpace=wrap;html=1;" vertex="1" parent="LvmRNkCIbL3GWUBd5G5_-146">
          <mxGeometry y="60" width="140" height="30" as="geometry" />
        </mxCell>
        <mxCell id="LvmRNkCIbL3GWUBd5G5_-149" value="" style="endArrow=none;html=1;rounded=0;exitX=1;exitY=0.5;exitDx=0;exitDy=0;" edge="1" parent="1" source="LvmRNkCIbL3GWUBd5G5_-148">
          <mxGeometry width="50" height="50" relative="1" as="geometry">
            <mxPoint x="2060" y="740" as="sourcePoint" />
            <mxPoint x="2190" y="641" as="targetPoint" />
          </mxGeometry>
        </mxCell>
        <mxCell id="LvmRNkCIbL3GWUBd5G5_-150" value="" style="endArrow=none;html=1;rounded=0;exitX=1;exitY=0.5;exitDx=0;exitDy=0;" edge="1" parent="1" source="LvmRNkCIbL3GWUBd5G5_-147" target="LvmRNkCIbL3GWUBd5G5_-132">
          <mxGeometry width="50" height="50" relative="1" as="geometry">
            <mxPoint x="2060" y="770" as="sourcePoint" />
            <mxPoint x="2110" y="720" as="targetPoint" />
          </mxGeometry>
        </mxCell>
        <mxCell id="LvmRNkCIbL3GWUBd5G5_-151" value="chefs_restaurants" style="swimlane;fontStyle=0;childLayout=stackLayout;horizontal=1;startSize=30;horizontalStack=0;resizeParent=1;resizeParentMax=0;resizeLast=0;collapsible=1;marginBottom=0;whiteSpace=wrap;html=1;" vertex="1" parent="1">
          <mxGeometry x="2440" y="760" width="170" height="120" as="geometry" />
        </mxCell>
        <mxCell id="LvmRNkCIbL3GWUBd5G5_-152" value="&lt;b style=&quot;text-decoration-line: underline;&quot;&gt;#id_chef&lt;/b&gt;&amp;nbsp; &amp;nbsp; &amp;nbsp; &amp;nbsp; &amp;nbsp; &amp;nbsp; &amp;nbsp; &amp;nbsp;Int" style="text;strokeColor=none;fillColor=none;align=left;verticalAlign=middle;spacingLeft=4;spacingRight=4;overflow=hidden;points=[[0,0.5],[1,0.5]];portConstraint=eastwest;rotatable=0;whiteSpace=wrap;html=1;" vertex="1" parent="LvmRNkCIbL3GWUBd5G5_-151">
          <mxGeometry y="30" width="170" height="30" as="geometry" />
        </mxCell>
        <mxCell id="LvmRNkCIbL3GWUBd5G5_-153" value="&lt;b style=&quot;text-decoration-line: underline;&quot;&gt;#id_restaurant&amp;nbsp;&lt;/b&gt;&amp;nbsp; &amp;nbsp;Int" style="text;strokeColor=none;fillColor=none;align=left;verticalAlign=middle;spacingLeft=4;spacingRight=4;overflow=hidden;points=[[0,0.5],[1,0.5]];portConstraint=eastwest;rotatable=0;whiteSpace=wrap;html=1;" vertex="1" parent="LvmRNkCIbL3GWUBd5G5_-151">
          <mxGeometry y="60" width="170" height="30" as="geometry" />
        </mxCell>
        <mxCell id="LvmRNkCIbL3GWUBd5G5_-154" value="roleChef&amp;nbsp; &amp;nbsp; &amp;nbsp; &amp;nbsp; &amp;nbsp; &amp;nbsp; &amp;nbsp; &amp;nbsp;Varchar(90)" style="text;strokeColor=none;fillColor=none;align=left;verticalAlign=middle;spacingLeft=4;spacingRight=4;overflow=hidden;points=[[0,0.5],[1,0.5]];portConstraint=eastwest;rotatable=0;whiteSpace=wrap;html=1;" vertex="1" parent="LvmRNkCIbL3GWUBd5G5_-151">
          <mxGeometry y="90" width="170" height="30" as="geometry" />
        </mxCell>
        <mxCell id="LvmRNkCIbL3GWUBd5G5_-155" value="" style="endArrow=none;html=1;rounded=0;exitX=0;exitY=0.5;exitDx=0;exitDy=0;entryX=1;entryY=0.25;entryDx=0;entryDy=0;" edge="1" parent="1" source="LvmRNkCIbL3GWUBd5G5_-152" target="LvmRNkCIbL3GWUBd5G5_-125">
          <mxGeometry width="50" height="50" relative="1" as="geometry">
            <mxPoint x="2450" y="750" as="sourcePoint" />
            <mxPoint x="2500" y="700" as="targetPoint" />
          </mxGeometry>
        </mxCell>
        <mxCell id="LvmRNkCIbL3GWUBd5G5_-156" value="" style="endArrow=none;html=1;rounded=0;entryX=0.991;entryY=0.351;entryDx=0;entryDy=0;entryPerimeter=0;" edge="1" parent="1" source="LvmRNkCIbL3GWUBd5G5_-135" target="LvmRNkCIbL3GWUBd5G5_-153">
          <mxGeometry width="50" height="50" relative="1" as="geometry">
            <mxPoint x="2450" y="750" as="sourcePoint" />
            <mxPoint x="2500" y="700" as="targetPoint" />
          </mxGeometry>
        </mxCell>
      </root>
    </mxGraphModel>
  </diagram>
</mxfile>
